<svg xmlns="http://www.w3.org/2000/svg" width="32" height="32" viewBox="0 0 32 32" class="euiIcon euiIcon--xLarge euiIcon--app euiCard__icon" focusable="false" role="img" aria-hidden="true"><path fill="#7de2d1" d="M18 6h9v2h-9zM5 6h9v2H5zM5 12h9v2H5zM18 12h9v2h-9zM5 18h9v2H5zM18 18h9v2h-9zM18 24h9v2h-9zM5 24h9v2H5z" class="euiIcon__fillSecondary"></path><path fill="#dfe5ef" d="M29 32H3a3 3 0 0 1-3-3V3a3 3 0 0 1 3-3h26a3 3 0 0 1 3 3v26a3 3 0 0 1-3 3ZM3 2a1 1 0 0 0-1 1v26a1 1 0 0 0 1 1h26a1 1 0 0 0 1-1V3a1 1 0 0 0-1-1H3Z"></path></svg>
